<?xml version="1.0" encoding="UTF-8"?>
<svg id="Layer_2" data-name="Layer 2" xmlns="http://www.w3.org/2000/svg" viewBox="0 0 239.17 167.79">
  <defs>
    <style>
      .cls-1 {
        fill-rule: evenodd;
      }

      .cls-1, .cls-2 {
        fill: #01b7ba;
      }

      .cls-3 {
        fill: #0c0e47;
      }
    </style>
  </defs>
  <g id="Layer_1-2" data-name="Layer 1">
    <path class="cls-1" d="M126.74,52.04c-7.73,7.48-16.87,13.36-26.88,17.28l1.48,1.38c12.75-3.03,18.06-7.04,28.86-13.6-5.92,6.89-12.57,15.7-19.51,21.48,6.22,5.98,13.51,10.89,19.98,16.59,8.04-6.7,12.17-13.02,16.81-22.4l-20.73-20.74h0ZM93.74,22.64h0c0,1.04.13,2.01.38,2.92.26.91.6,1.71,1.05,2.39.44.69.96,1.22,1.56,1.61.59.39,1.23.58,1.9.58-.67,0-1.31.19-1.9.59-.59.39-1.11.93-1.56,1.61-.45.69-.8,1.48-1.05,2.39-.25.91-.38,1.88-.38,2.92,0-1.04-.13-2.01-.38-2.92-.25-.91-.6-1.71-1.05-2.39-.45-.68-.97-1.22-1.56-1.61-.59-.39-1.22-.59-1.9-.59.67,0,1.31-.19,1.9-.58.59-.39,1.11-.92,1.56-1.61.45-.68.8-1.48,1.05-2.39.25-.91.38-1.88.38-2.92h0ZM112.04,8.26h0c0,2,.25,3.88.74,5.63.49,1.76,1.17,3.29,2.03,4.61.86,1.33,1.86,2.36,3,3.11,1.14.75,2.36,1.13,3.66,1.13-1.3,0-2.52.37-3.66,1.13-1.14.75-2.14,1.79-3,3.11-.86,1.33-1.54,2.86-2.03,4.61-.49,1.75-.74,3.63-.74,5.63,0-2-.24-3.88-.73-5.63-.49-1.75-1.16-3.29-2.03-4.61-.86-1.32-1.86-2.36-3-3.11-1.14-.76-2.36-1.13-3.66-1.13,1.3,0,2.52-.37,3.66-1.13,1.14-.75,2.14-1.78,3-3.11.87-1.32,1.54-2.86,2.03-4.61.49-1.75.73-3.63.73-5.63h0ZM150.21,52.21c3.45-5.79,4.96-12.35,4.56-18.8-.45-7.33-3.06-17.03-8.34-22.75,8.33,3.29,12.67,15.99,13.06,22.48.47,7.75-1.45,15.65-5.85,22.51l2.52,2.52c1.6,1.6,2.4,3.72,2.4,5.82s-.8,4.22-2.4,5.82l-3.88,3.88c-5.26,11.08-10.59,18.83-20.22,26.43l-1.55,1.23-1.47-1.31c-8.47-7.52-17.28-13.76-25.47-21.81,1.96-1.54,6.87-4.71,8.71-6.42-3,.9-9.25,3.36-12.3,4.09l-9.06-8.43,3.76-1.27c10.75-3.63,20.57-9.61,28.73-17.49l5.82-5.82c1.6-1.6,3.71-2.41,5.82-2.41s4.22.8,5.82,2.41l3.56,3.56c1.87-4.24,2.69-8.8,2.49-13.31-.25-5.53-2.04-10.99-5.34-15.7-3.3-4.71-7.81-8.26-12.92-10.4-3.27-1.37-6.79-2.15-10.39-2.28v.05c-13.83,0-26.34,5.61-35.41,14.67-9.06,9.06-14.67,21.58-14.67,35.41s5.6,26.35,14.67,35.41c9.06,9.06,21.58,14.66,35.41,14.66s26.35-5.6,35.41-14.66c9.06-9.06,14.67-21.58,14.67-35.41,0-3.62-.38-7.14-1.1-10.51.23-3.64.74-6.96,1.04-11.93,1.56,3.48,2.78,7.15,3.59,10.95.79,3.72,1.21,7.57,1.21,11.49,0,15.13-6.13,28.84-16.05,38.76-9.92,9.92-23.62,16.05-38.76,16.05s-28.84-6.13-38.75-16.05c-9.92-9.92-16.05-23.62-16.05-38.76s6.13-28.84,16.05-38.76C87.94,7.7,99.08,2.01,111.51.48c6.53-1.1,13.09-.27,18.97,2.18,5.91,2.47,11.14,6.59,14.97,12.06,3.82,5.47,5.9,11.79,6.19,18.2.26,5.82-.95,11.7-3.65,17.07l2.22,2.22h0ZM152.81,61.51l-15.28-15.29c-.68-.68-1.58-1.02-2.47-1.02s-1.8.34-2.47,1.02l-2.47,2.47,20.23,20.23,2.47-2.47c.68-.68,1.02-1.57,1.02-2.47s-.34-1.8-1.02-2.47h0Z"/>
    <g>
      <path class="cls-3" d="M5.34,126.62v6.1h10.68v4.28H5.34v8.4H0v-23.07h17.44v4.29H5.34Z"/>
      <path class="cls-3" d="M36.58,145.4l-4.45-6.43h-4.91v6.43h-5.34v-23.07h9.99c6.16,0,10.02,3.2,10.02,8.37,0,3.46-1.75,6-4.75,7.28l5.17,7.42h-5.74ZM31.57,126.68h-4.35v8.04h4.35c3.26,0,4.91-1.52,4.91-4.02s-1.65-4.02-4.91-4.02Z"/>
      <path class="cls-3" d="M64.79,141.12v4.28h-17.86v-23.07h17.44v4.29h-12.13v5.01h10.71v4.15h-10.71v5.34h12.56Z"/>
      <path class="cls-3" d="M68.05,143.13l1.81-4.02c1.94,1.42,4.84,2.41,7.61,2.41,3.16,0,4.45-1.05,4.45-2.47,0-4.32-13.41-1.35-13.41-9.92,0-3.92,3.16-7.19,9.72-7.19,2.9,0,5.87.69,8.01,2.04l-1.65,4.05c-2.14-1.22-4.35-1.81-6.39-1.81-3.16,0-4.38,1.19-4.38,2.64,0,4.25,13.41,1.32,13.41,9.79,0,3.86-3.2,7.15-9.79,7.15-3.66,0-7.35-1.09-9.39-2.67Z"/>
      <path class="cls-3" d="M112.88,122.33v23.07h-5.34v-9.46h-10.48v9.46h-5.34v-23.07h5.34v9.1h10.48v-9.1h5.34Z"/>
      <path class="cls-3" d="M127.51,143.13l1.81-4.02c1.94,1.42,4.84,2.41,7.61,2.41,3.16,0,4.45-1.05,4.45-2.47,0-4.32-13.41-1.35-13.41-9.92,0-3.92,3.16-7.19,9.72-7.19,2.9,0,5.87.69,8.01,2.04l-1.65,4.05c-2.14-1.22-4.35-1.81-6.39-1.81-3.16,0-4.38,1.19-4.38,2.64,0,4.25,13.41,1.32,13.41,9.79,0,3.86-3.2,7.15-9.79,7.15-3.66,0-7.35-1.09-9.39-2.67Z"/>
      <path class="cls-3" d="M155.62,126.68h-7.38v-4.35h20.11v4.35h-7.38v18.72h-5.34v-18.72Z"/>
      <path class="cls-3" d="M186.07,140.46h-10.71l-2.04,4.94h-5.47l10.28-23.07h5.27l10.32,23.07h-5.6l-2.04-4.94ZM184.39,136.41l-3.66-8.83-3.66,8.83h7.32Z"/>
      <path class="cls-3" d="M211.65,145.4l-4.45-6.43h-4.91v6.43h-5.34v-23.07h9.99c6.16,0,10.02,3.2,10.02,8.37,0,3.46-1.75,6-4.75,7.28l5.17,7.42h-5.73ZM206.64,126.68h-4.35v8.04h4.35c3.26,0,4.91-1.52,4.91-4.02s-1.65-4.02-4.91-4.02Z"/>
      <path class="cls-3" d="M226.44,126.68h-7.38v-4.35h20.1v4.35h-7.38v18.72h-5.34v-18.72Z"/>
    </g>
    <g>
      <path class="cls-2" d="M67.89,166.59l.82-1.81c.88.64,2.18,1.08,3.43,1.08,1.42,0,2-.47,2-1.11,0-1.94-6.04-.61-6.04-4.46,0-1.76,1.42-3.23,4.38-3.23,1.31,0,2.64.31,3.6.92l-.74,1.82c-.96-.55-1.96-.82-2.88-.82-1.42,0-1.97.53-1.97,1.19,0,1.91,6.04.59,6.04,4.4,0,1.74-1.44,3.22-4.41,3.22-1.65,0-3.31-.49-4.23-1.2Z"/>
      <path class="cls-2" d="M80.48,162.42c0-3.08,2.4-5.37,5.68-5.37s5.68,2.27,5.68,5.37-2.42,5.37-5.68,5.37-5.68-2.28-5.68-5.37ZM89.41,162.42c0-1.97-1.39-3.32-3.25-3.32s-3.25,1.35-3.25,3.32,1.39,3.32,3.25,3.32,3.25-1.35,3.25-3.32Z"/>
      <path class="cls-2" d="M96.62,157.23h2.4v8.42h5.21v1.96h-7.61v-10.38Z"/>
      <path class="cls-2" d="M108.32,163.04v-5.81h2.4v5.72c0,1.97.86,2.79,2.31,2.79s2.31-.82,2.31-2.79v-5.72h2.37v5.81c0,3.06-1.75,4.75-4.7,4.75s-4.7-1.69-4.7-4.75Z"/>
      <path class="cls-2" d="M125.04,159.19h-3.32v-1.96h9.05v1.96h-3.32v8.42h-2.4v-8.42Z"/>
      <path class="cls-2" d="M135.02,157.23h2.4v10.38h-2.4v-10.38Z"/>
      <path class="cls-2" d="M142.19,162.42c0-3.08,2.4-5.37,5.68-5.37s5.68,2.27,5.68,5.37-2.42,5.37-5.68,5.37-5.68-2.28-5.68-5.37ZM151.12,162.42c0-1.97-1.39-3.32-3.25-3.32s-3.25,1.35-3.25,3.32,1.39,3.32,3.25,3.32,3.25-1.35,3.25-3.32Z"/>
      <path class="cls-2" d="M167.85,157.23v10.38h-1.97l-5.18-6.3v6.3h-2.37v-10.38h1.99l5.16,6.3v-6.3h2.37Z"/>
    </g>
  </g>
</svg>